<svg width="128" height="76" viewBox="0 0 128 76" fill="none" xmlns="http://www.w3.org/2000/svg">
<path d="M6.37815 0.00190005C3.96433 0.000852488 1.95996 2.21509 1.91075 4.93706L1.91075 24.0975C8.34955 24.1003 14.1263 30.36 13.9951 37.6208C13.8638 44.8816 8.34957 50.784 1.91077 50.7812L1.91077 71.0019C1.86157 73.7239 3.78585 75.9398 6.19967 75.9409L121.7 75.991C124.113 75.992 125.816 73.9103 125.865 71.1884L125.865 51.0019C119.427 50.9991 114.77 44.9254 114.901 37.6646C115.033 30.4038 119.376 24.5014 125.814 24.5042L125.814 5.00191C125.864 2.27994 123.939 0.0639951 121.525 0.0629475L6.37815 0.00190005Z" fill="#FF1888"/>
<path d="M37.6273 19.2739C39.077 19.2733 40.2518 18.0976 40.2511 16.6478C40.2505 15.1981 39.0747 14.0233 37.625 14.0239C36.1753 14.0246 35.0005 15.2003 35.0011 16.6501C35.0018 18.0998 36.1775 19.2746 37.6273 19.2739Z" fill="white"/>
<path d="M48.1271 19.2694C49.5769 19.2687 50.7516 18.093 50.751 16.6432C50.7504 15.1935 49.5746 14.0187 48.1248 14.0194C46.6751 14.02 45.5004 15.1958 45.501 16.6455C45.5016 18.0953 46.6774 19.27 48.1271 19.2694Z" fill="white"/>
<path d="M58.6272 19.2648C60.077 19.2642 61.2517 18.0884 61.2511 16.6387C61.2504 15.1889 60.0747 14.0142 58.6249 14.0148C57.1752 14.0155 56.0004 15.1912 56.0011 16.641C56.0017 18.0907 57.1775 19.2654 58.6272 19.2648Z" fill="white"/>
<path d="M69.1273 19.2603C70.5771 19.2596 71.7518 18.0839 71.7512 16.6341C71.7505 15.1844 70.5748 14.0096 69.125 14.0103C67.6753 14.0109 66.5005 15.1867 66.5012 16.6364C66.5018 18.0861 67.6776 19.2609 69.1273 19.2603Z" fill="white"/>
<path d="M79.6272 19.2557C81.0769 19.2551 82.2516 18.0793 82.251 16.6295C82.2504 15.1798 81.0746 14.0051 79.6249 14.0057C78.1751 14.0063 77.0004 15.1821 77.001 16.6318C77.0016 18.0816 78.1774 19.2563 79.6272 19.2557Z" fill="white"/>
<path d="M90.1272 19.2511C91.577 19.2505 92.7517 18.0747 92.7511 16.625C92.7504 15.1752 91.5747 14.0005 90.1249 14.0011C88.6752 14.0018 87.5004 15.1775 87.5011 16.6273C87.5017 18.077 88.6775 19.2518 90.1272 19.2511Z" fill="white"/>
<path d="M37.6455 61.2739C39.0952 61.2733 40.27 60.0976 40.2693 58.6478C40.2687 57.1981 39.0929 56.0233 37.6432 56.0239C36.1934 56.0246 35.0187 57.2003 35.0193 58.6501C35.02 60.0998 36.1957 61.2746 37.6455 61.2739Z" fill="white"/>
<path d="M48.1456 61.2694C49.5953 61.2688 50.77 60.093 50.7694 58.6433C50.7688 57.1935 49.593 56.0188 48.1433 56.0194C46.6935 56.02 45.5188 57.1958 45.5194 58.6455C45.5201 60.0953 46.6958 61.27 48.1456 61.2694Z" fill="white"/>
<path d="M58.6454 61.2648C60.0952 61.2642 61.2699 60.0884 61.2693 58.6387C61.2686 57.1889 60.0929 56.0142 58.6431 56.0148C57.1934 56.0155 56.0186 57.1912 56.0193 58.641C56.0199 60.0907 57.1957 61.2654 58.6454 61.2648Z" fill="white"/>
<path d="M69.1455 61.2602C70.5952 61.2596 71.77 60.0838 71.7693 58.6341C71.7687 57.1844 70.5929 56.0096 69.1432 56.0102C67.6934 56.0109 66.5187 57.1866 66.5193 58.6364C66.52 60.0861 67.6957 61.2609 69.1455 61.2602Z" fill="white"/>
<path d="M79.6456 61.2557C81.0953 61.2551 82.2701 60.0793 82.2695 58.6296C82.2688 57.1798 81.0931 56.0051 79.6433 56.0057C78.1936 56.0063 77.0188 57.1821 77.0195 58.6318C77.0201 60.0816 78.1958 61.2563 79.6456 61.2557Z" fill="white"/>
<path d="M90.1454 61.2511C91.5952 61.2505 92.7699 60.0748 92.7693 58.625C92.7686 57.1753 91.5929 56.0005 90.1431 56.0011C88.6934 56.0018 87.5186 57.1775 87.5193 58.6273C87.5199 60.077 88.6957 61.2518 90.1454 61.2511Z" fill="white"/>
</svg>
